HIERARCHY
ROOT Hips
{
	OFFSET	-5.6547	89.1851	5.6790
	CHANNELS 6 Xposition Yposition Zposition Zrotation Yrotation Xrotation
	JOINT Chest
	{
		OFFSET	0.0000	16.3830	0.0000
		CHANNELS 3 Zrotation Yrotation Xrotation
		JOINT LeftCollar
		{
			OFFSET	3.8100	32.7660	-3.8100
			CHANNELS 3 Zrotation Yrotation Xrotation
			JOINT LeftUpArm
			{
				OFFSET	14.5367	0.0000	3.8951
				CHANNELS 3 Zrotation Yrotation Xrotation
				JOINT LeftLowArm
				{
					OFFSET	30.2895	0.0000	0.0000
					CHANNELS 3 Zrotation Yrotation Xrotation
					JOINT LeftHand
					{
						OFFSET	27.2415	0.0000	0.0000
						CHANNELS 3 Zrotation Yrotation Xrotation
						End Site
						{
							OFFSET	20.3835	0.0000	0.0000
						}
					}
				}
			}
		}
		JOINT Neck
		{
			OFFSET	0.0000	32.7660	0.0000
			CHANNELS 3 Zrotation Yrotation Xrotation
			JOINT Head
			{
				OFFSET	0.0000	19.6215	0.0000
				CHANNELS 3 Zrotation Yrotation Xrotation
				End Site
				{
					OFFSET	0.0000	0.0000	10.1600
				}
			}
		}
		JOINT RightCollar
		{
			OFFSET	-3.8100	32.7660	-3.8100
			CHANNELS 3 Zrotation Yrotation Xrotation
			JOINT RightUpArm
			{
				OFFSET	-14.5367	0.0000	3.8951
				CHANNELS 3 Zrotation Yrotation Xrotation
				JOINT RightLowArm
				{
					OFFSET	-30.2895	0.0000	0.0000
					CHANNELS 3 Zrotation Yrotation Xrotation
					JOINT RightHand
					{
						OFFSET	-27.2415	0.0000	0.0000
						CHANNELS 3 Zrotation Yrotation Xrotation
						End Site
						{
							OFFSET	-20.3835	0.0000	0.0000
						}
					}
				}
			}
		}
	}
	JOINT LeftUpLeg
	{
		OFFSET	9.3345	0.0000	0.0000
		CHANNELS 3 Zrotation Yrotation Xrotation
		JOINT LeftLowLeg
		{
			OFFSET	0.0000	-45.5295	0.0000
			CHANNELS 3 Zrotation Yrotation Xrotation
			JOINT LeftFoot
			{
				OFFSET	0.0000	-44.1960	0.0000
				CHANNELS 3 Zrotation Yrotation Xrotation
				End Site
				{
					OFFSET	0.0000	0.0000	26.4795
				}
			}
		}
	}
	JOINT RightUpLeg
	{
		OFFSET	-9.3345	0.0000	0.0000
		CHANNELS 3 Zrotation Yrotation Xrotation
		JOINT RightLowLeg
		{
			OFFSET	0.0000	-45.5295	0.0000
			CHANNELS 3 Zrotation Yrotation Xrotation
			JOINT RightFoot
			{
				OFFSET	0.0000	-44.1960	0.0000
				CHANNELS 3 Zrotation Yrotation Xrotation
				End Site
				{
					OFFSET	0.0000	0.0000	26.4795
				}
			}
		}
	}
}
MOTION
Frames: 18
Frame Time: 0.0166666666667
-5.6547	89.1851	5.6790	0.0420	-0.4320	-2.1027	0.7354	-0.5395	-0.0639	-8.1534	-0.2513	-0.6666	-65.8483	-9.1170	36.4063	-2.7253	-16.3184	36.5218	-7.8357	-1.9554	-3.8954	-0.4884	2.2422	7.1554	-0.4884	2.2422	7.1554	5.4794	4.9730	-0.6624	73.6981	17.1735	52.7441	1.6844	11.4025	12.2958	-5.1998	4.8488	13.9560	6.0263	-1.5633	1.8777	0.2003	2.6055	1.1197	-4.9241	0.5845	-1.1311	-7.8215	3.8165	-0.0960	-1.0052	-6.1718	0.8373	8.4440	-3.2243	1.8499	
-2.0970	89.1876	3.8944	0.0337	-0.4238	-2.0877	0.7449	-0.5372	-0.0717	-8.1419	-0.2482	-0.6713	-65.8661	-9.1250	36.4393	-2.7132	-16.3367	36.5381	-7.8623	-1.9597	-3.8998	-0.4876	2.2485	7.1569	-0.4876	2.2485	7.1569	5.4711	4.9868	-0.6668	73.7010	17.1700	52.7399	1.6956	11.4076	12.2928	-5.1996	4.8400	13.9723	6.0366	-1.5552	1.8674	0.1888	2.6044	1.1152	-4.9131	0.5636	-1.1306	-7.8398	3.8427	-0.1302	-0.9757	-6.1954	0.8612	8.4508	-3.2227	1.8397	
-2.0906	89.1896	3.9012	0.0319	-0.4171	-2.0877	0.7487	-0.5324	-0.0575	-8.1386	-0.2552	-0.6840	-65.8655	-9.1234	36.4559	-2.7092	-16.3560	36.5415	-7.8700	-1.9550	-3.8997	-0.4880	2.2512	7.1567	-0.4880	2.2512	7.1567	5.4645	4.9995	-0.6779	73.7028	17.1639	52.7663	1.6843	11.4104	12.2689	-5.2005	4.8340	13.9584	6.0327	-1.5680	1.8574	0.2018	2.6187	1.1217	-4.9185	0.5583	-1.1300	-7.8399	3.8569	-0.1337	-0.9717	-6.2106	0.8746	8.4472	-3.1969	1.8343	
-2.0916	89.1898	3.8924	0.0312	-0.4127	-2.0894	0.7502	-0.5244	-0.0484	-8.1387	-0.2666	-0.6840	-65.8687	-9.1276	36.4520	-2.7028	-16.3595	36.5400	-7.8747	-1.9538	-3.8825	-0.4896	2.2528	7.1607	-0.4896	2.2528	7.1607	5.4602	5.0072	-0.6843	73.6948	17.1612	52.7839	1.6880	11.4171	12.2762	-5.1918	4.8267	13.9328	6.0372	-1.5647	1.8579	0.2002	2.6129	1.1156	-4.9199	0.5506	-1.1184	-7.8339	3.8600	-0.1309	-0.9722	-6.2052	0.8870	8.4450	-3.2183	1.8268	
-2.0962	89.1895	3.8874	0.0264	-0.4043	-2.0820	0.7529	-0.5182	-0.0459	-8.1428	-0.2795	-0.6922	-65.8676	-9.1202	36.4398	-2.7010	-16.3710	36.5424	-7.8743	-1.9334	-3.8410	-0.4931	2.2500	7.1625	-0.4931	2.2500	7.1625	5.4584	5.0128	-0.6934	73.6972	17.1406	52.7938	1.6683	11.4245	12.2920	-5.1953	4.8354	13.9085	6.0457	-1.5692	1.8509	0.2063	2.6145	1.1083	-4.9313	0.5519	-1.1082	-7.8218	3.8509	-0.1400	-0.9742	-6.1977	0.8914	8.4257	-3.2293	1.8292	
-2.1067	89.1892	3.8848	0.0139	-0.4037	-2.0729	0.7658	-0.5127	-0.0514	-8.1475	-0.2774	-0.7012	-65.8671	-9.1198	36.4289	-2.7144	-16.3564	36.5611	-7.8616	-1.9230	-3.8297	-0.4954	2.2498	7.1655	-0.4954	2.2498	7.1655	5.4552	5.0260	-0.6953	73.6986	17.1314	52.7941	1.6612	11.4236	12.3072	-5.2031	4.8359	13.8834	6.0669	-1.5618	1.8324	0.2047	2.6081	1.1126	-4.9389	0.5528	-1.1005	-7.8231	3.8615	-0.1382	-0.9591	-6.2000	0.8842	8.4294	-3.2386	1.8270	
-2.1180	89.1900	3.8734	0.0035	-0.4023	-2.0657	0.7739	-0.5051	-0.0557	-8.1448	-0.2775	-0.7162	-65.8707	-9.1118	36.4334	-2.7118	-16.3472	36.5697	-7.8669	-1.9163	-3.8308	-0.4967	2.2490	7.1670	-0.4967	2.2490	7.1670	5.4546	5.0364	-0.6967	73.6890	17.1252	52.7826	1.6611	11.4301	12.3093	-5.2284	4.8549	13.9295	6.0844	-1.5603	1.8209	0.2057	2.6102	1.1128	-4.9488	0.5502	-1.0931	-7.8217	3.8494	-0.1427	-0.9465	-6.1790	0.8871	8.4242	-3.2385	1.8281	
-2.1289	89.1905	3.8672	-0.0031	-0.3946	-2.0631	0.7786	-0.5109	-0.0545	-8.1430	-0.2730	-0.7268	-65.8753	-9.1252	36.4247	-2.7162	-16.3326	36.5834	-7.8768	-1.9100	-3.8318	-0.4962	2.2535	7.1669	-0.4962	2.2535	7.1669	5.4534	5.0540	-0.6985	73.6881	17.1287	52.7926	1.6651	11.4264	12.3189	-5.2417	4.8683	13.9317	6.0961	-1.5660	1.8280	0.2016	2.6085	1.0995	-4.9485	0.5414	-1.0892	-7.8167	3.8414	-0.1492	-0.9407	-6.1650	0.9094	8.4298	-3.2343	1.8008	
-2.1347	89.1911	3.8747	-0.0069	-0.3804	-2.0597	0.7802	-0.5106	-0.0362	-8.1387	-0.2797	-0.7496	-65.8844	-9.1318	36.4308	-2.7266	-16.3301	36.5950	-7.8766	-1.8954	-3.8468	-0.4927	2.2540	7.1576	-0.4927	2.2540	7.1576	5.4505	5.0609	-0.7195	73.6847	17.1317	52.7804	1.6734	11.4315	12.3428	-5.2491	4.8700	13.9551	6.1011	-1.5712	1.8052	0.2120	2.5944	1.1076	-4.9622	0.5440	-1.0791	-7.7960	3.8254	-0.1436	-0.9599	-6.1668	0.9101	8.4252	-3.2412	1.7889	
-2.1438	89.1907	3.8551	-0.0089	-0.3686	-2.0561	0.7770	-0.5091	-0.0334	-8.1312	-0.2826	-0.7570	-65.8902	-9.1333	36.4465	-2.7276	-16.3283	36.5881	-7.8766	-1.8981	-3.8470	-0.4907	2.2543	7.1566	-0.4907	2.2543	7.1566	5.4520	5.0676	-0.7250	73.6810	17.1334	52.7695	1.6808	11.4417	12.3688	-5.2370	4.8717	13.9916	6.0995	-1.5757	1.7943	0.2114	2.5805	1.1124	-4.9599	0.5489	-1.0742	-7.7921	3.8247	-0.1464	-0.9623	-6.1794	0.9095	8.4147	-3.2452	1.7864	
-2.1378	89.1917	3.8511	-0.0231	-0.3666	-2.0521	0.7907	-0.5018	-0.0351	-8.1262	-0.2831	-0.7590	-65.8919	-9.1351	36.4620	-2.7274	-16.3337	36.5821	-7.8892	-1.9130	-3.8669	-0.4930	2.2595	7.1587	-0.4930	2.2595	7.1587	5.4496	5.0774	-0.7260	73.6772	17.1498	52.7830	1.6957	11.4386	12.3579	-5.2441	4.8748	14.0296	6.1217	-1.5778	1.7768	0.2004	2.5797	1.1264	-4.9578	0.5502	-1.0912	-7.7838	3.8337	-0.1561	-0.9626	-6.1827	0.9170	8.4124	-3.2440	1.7881	
-2.1410	89.1936	3.8418	-0.0320	-0.3707	-2.0455	0.7985	-0.4896	-0.0399	-8.1167	-0.2845	-0.7616	-65.8988	-9.1299	36.4698	-2.7408	-16.3477	36.6004	-7.8740	-1.9078	-3.8838	-0.4981	2.2644	7.1590	-0.4981	2.2644	7.1590	5.4481	5.0885	-0.7262	73.6729	17.1649	52.7986	1.7290	11.4342	12.3673	-5.2723	4.8618	14.0084	6.1354	-1.5858	1.7660	0.2005	2.5917	1.1303	-4.9548	0.5559	-1.0863	-7.7828	3.8473	-0.1698	-0.9577	-6.1851	0.9277	8.4176	-3.2563	1.7803	
-2.1483	89.1942	3.8366	-0.0385	-0.3720	-2.0402	0.8019	-0.4707	-0.0462	-8.1105	-0.2994	-0.7600	-65.9005	-9.1262	36.4710	-2.7382	-16.3476	36.6043	-7.8635	-1.9109	-3.8885	-0.4988	2.2651	7.1625	-0.4988	2.2651	7.1625	5.4487	5.0901	-0.7245	73.6758	17.1601	52.8027	1.7242	11.4277	12.3681	-5.2764	4.8841	14.0555	6.1375	-1.5902	1.7571	0.2177	2.6011	1.1371	-4.9647	0.5545	-1.0908	-7.7795	3.8448	-0.1756	-0.9462	-6.1800	0.9261	8.4017	-3.2364	1.7779	
-2.1543	89.1946	3.8352	-0.0408	-0.3750	-2.0457	0.8002	-0.4551	-0.0392	-8.1064	-0.3070	-0.7605	-65.8946	-9.1223	36.4615	-2.7421	-16.3623	36.6186	-7.8717	-1.8914	-3.8835	-0.5019	2.2677	7.1606	-0.5019	2.2677	7.1606	5.4499	5.0968	-0.7249	73.6688	17.1539	52.8021	1.7207	11.4395	12.3630	-5.2671	4.8852	14.0639	6.1369	-1.6041	1.7643	0.2181	2.6114	1.1298	-4.9669	0.5547	-1.0898	-7.7772	3.8436	-0.1699	-0.9438	-6.1808	0.9258	8.4078	-3.2297	1.7772	
-2.1511	89.1954	3.8314	-0.0406	-0.3750	-2.0549	0.7980	-0.4427	-0.0251	-8.1077	-0.3016	-0.7723	-65.8885	-9.1211	36.4539	-2.7503	-16.3619	36.6384	-7.8746	-1.8910	-3.8835	-0.5058	2.2699	7.1587	-0.5058	2.2699	7.1587	5.4487	5.1042	-0.7287	73.6618	17.1477	52.8015	1.7153	11.4478	12.3472	-5.2415	4.8793	14.1462	6.1399	-1.6091	1.7740	0.2149	2.6095	1.1259	-4.9687	0.5624	-1.0933	-7.7703	3.8355	-0.1648	-0.9549	-6.1839	0.9278	8.4086	-3.2172	1.7810	
-2.1545	89.1950	3.8292	-0.0406	-0.3802	-2.0497	0.7980	-0.4322	-0.0278	-8.1119	-0.2949	-0.7831	-65.8843	-9.1171	36.4530	-2.7454	-16.3663	36.6346	-7.8911	-1.8888	-3.8762	-0.5078	2.2707	7.1586	-0.5078	2.2707	7.1586	5.4461	5.1184	-0.7294	73.6548	17.1415	52.8009	1.7184	11.4405	12.4113	-5.2506	4.8958	14.0948	6.1433	-1.6194	1.7689	0.2110	2.6167	1.1249	-4.9721	0.5769	-1.0988	-7.7658	3.8361	-0.1815	-0.9605	-6.1823	0.9389	8.4023	-3.2534	1.7730	
-2.1571	89.1948	3.8269	-0.0465	-0.3833	-2.0416	0.8046	-0.4087	-0.0334	-8.1175	-0.3076	-0.7861	-65.8785	-9.1177	36.4465	-2.7491	-16.3676	36.6450	-7.8882	-1.8828	-3.8864	-0.5130	2.2763	7.1629	-0.5130	2.2763	7.1629	5.4426	5.1176	-0.7316	73.6479	17.1354	52.7996	1.7210	11.4434	12.4230	-5.2500	4.9141	14.1077	6.1488	-1.6186	1.7534	0.2113	2.6116	1.1323	-4.9737	0.5911	-1.0973	-7.7550	3.8349	-0.1980	-0.9669	-6.1796	0.9471	8.3890	-3.2723	1.7794	
-2.1560	89.1958	3.8200	-0.0527	-0.3808	-2.0391	0.8119	-0.4062	-0.0329	-8.1219	-0.3020	-0.7916	-65.8783	-9.1247	36.4429	-2.7486	-16.3556	36.6283	-7.8905	-1.8902	-3.8597	-0.5170	2.2841	7.1649	-0.5170	2.2841	7.1649	5.4385	5.1321	-0.7327	73.6561	17.1250	52.8200	1.7038	11.4419	12.4023	-5.2429	4.9312	14.1343	6.1537	-1.6215	1.7475	0.2026	2.6125	1.1353	-4.9639	0.5948	-1.0960	-7.7564	3.8361	-0.2184	-0.9561	-6.1846	0.9728	8.3902	-3.2950	1.7879	
